<svg width="20" height="20" viewBox="0 0 20 20" fill="none" xmlns="http://www.w3.org/2000/svg">
<path d="M13.1498 13.1999C13.1498 13.1999 15.5332 10.8333 16.3415 9.99994C18.8998 7.49994 17.6248 2.34994 17.6248 2.34994C17.6248 2.34994 12.4998 1.07494 9.99984 3.63327C8.04984 5.53327 6.78317 6.84994 6.78317 6.84994C6.78317 6.84994 3.58317 6.18327 1.6665 8.09994L11.8748 18.3333C13.7915 16.3916 13.1498 13.1999 13.1498 13.1999ZM11.8998 5.69994C12.0546 5.54498 12.2384 5.42204 12.4408 5.33817C12.6431 5.2543 12.86 5.21113 13.079 5.21113C13.298 5.21113 13.5149 5.2543 13.7172 5.33817C13.9196 5.42204 14.1034 5.54498 14.2582 5.69994C14.4911 5.9331 14.6496 6.23007 14.7138 6.55332C14.7779 6.87657 14.7448 7.21159 14.6186 7.51603C14.4924 7.82046 14.2788 8.08065 14.0048 8.2637C13.7307 8.44676 13.4086 8.54446 13.079 8.54446C12.7494 8.54446 12.4273 8.44676 12.1532 8.2637C11.8792 8.08065 11.6656 7.82046 11.5394 7.51603C11.4132 7.21159 11.3801 6.87657 11.4442 6.55332C11.5084 6.23007 11.6669 5.9331 11.8998 5.69994ZM2.49984 17.4999C4.04239 17.4559 5.51913 16.8652 6.6665 15.8333L4.1665 13.3333C2.49984 14.1666 2.49984 17.4999 2.49984 17.4999Z" fill="#687788"/>
</svg>
